<svg id="Layer_1" data-name="Layer 1" xmlns="http://www.w3.org/2000/svg" viewBox="0 0 72 72"><defs><style>.cls-1{fill:#f7ba57;}.cls-2{fill:#eea91f;}.cls-3{fill:#d18915;}.cls-4{fill:#f4b037;}.cls-5{fill:#d8941d;}.cls-6{fill:#e59a23;}</style></defs><title>jeams</title><polygon class="cls-1" points="52 10.21 20.13 9.93 3.95 37.38 19.64 65.13 51.51 65.41 67.69 37.95 52 10.21"/><polygon class="cls-2" points="35.82 37.67 52 10.21 20.13 9.93 35.82 37.67"/><polygon class="cls-3" points="20.13 9.93 3.95 37.38 35.82 37.67 20.13 9.93"/><polygon class="cls-4" points="67.69 37.95 67.69 37.95 35.82 37.67 35.82 37.67 51.51 65.41 51.51 65.41 67.69 37.95"/><polygon class="cls-5" points="35.82 37.67 3.95 37.38 19.64 65.13 35.82 37.67"/><polygon class="cls-2" points="19.64 65.13 51.51 65.41 35.82 37.67 19.64 65.13"/><polygon class="cls-1" points="44.68 53.33 53.81 37.83 44.95 22.17 26.97 22.01 17.84 37.51 26.69 53.16 44.68 53.33"/><polygon class="cls-6" points="44.68 53.33 53.81 37.83 44.95 22.17 26.69 53.16 44.68 53.33"/></svg>